<svg xmlns="http://www.w3.org/2000/svg" viewBox="0 0 640 400" fill="none">
  <rect width="640" height="400" fill="#0B0F14"/>
  <g stroke="#4A5A70" stroke-width="1" opacity="0.3">
    <path d="M40 40h560M40 360h560M40 40v320M600 40v320"/>
  </g>
  <rect x="48" y="72" width="250" height="268" rx="4" stroke="#2A3441" stroke-width="1.5" fill="#0F1820"/>
  <text x="68" y="104" fill="#8B9BB4" font-family="monospace" font-size="11" letter-spacing="1">BY CHANGE</text>
  <rect x="68" y="124" width="210" height="40" rx="3" stroke="#E11D48" stroke-width="1.5" fill="#1A0C12"/>
  <circle cx="92" cy="144" r="6" fill="#E11D48"/>
  <text x="112" y="149" fill="#E8EEF5" font-family="sans-serif" font-size="13">Deleted</text>
  <rect x="68" y="176" width="210" height="40" rx="3" stroke="#E8A54B" stroke-width="1.5" fill="#1A1408"/>
  <circle cx="92" cy="196" r="6" fill="#E8A54B"/>
  <text x="112" y="201" fill="#E8EEF5" font-family="sans-serif" font-size="13">Modified</text>
  <rect x="68" y="228" width="210" height="40" rx="3" stroke="#22C55E" stroke-width="1.5" fill="#0C1A12"/>
  <circle cx="92" cy="248" r="6" fill="#22C55E"/>
  <text x="112" y="253" fill="#E8EEF5" font-family="sans-serif" font-size="13">Added</text>
  <rect x="68" y="280" width="210" height="40" rx="3" stroke="#3DDCFF" stroke-width="1.5" fill="#0C141A"/>
  <circle cx="92" cy="300" r="6" fill="#3DDCFF"/>
  <text x="112" y="305" fill="#E8EEF5" font-family="sans-serif" font-size="13">All changes</text>
  <rect x="342" y="72" width="250" height="268" rx="4" stroke="#2A3441" stroke-width="1.5" fill="#0F1820"/>
  <text x="362" y="104" fill="#8B9BB4" font-family="monospace" font-size="11" letter-spacing="1">BY ENTITY TYPE</text>
  <rect x="362" y="124" width="210" height="36" rx="3" stroke="#3DDCFF" stroke-width="1.2" fill="#0C141A"/>
  <path d="M380 142h40" stroke="#3DDCFF" stroke-width="2" stroke-linecap="round"/>
  <text x="434" y="147" fill="#E8EEF5" font-family="sans-serif" font-size="12">LINE</text>
  <rect x="362" y="170" width="210" height="36" rx="3" stroke="#8B9BB4" stroke-width="1.2" fill="#0B0F14"/>
  <circle cx="400" cy="188" r="10" stroke="#8B9BB4" stroke-width="1.5" fill="none"/>
  <text x="434" y="193" fill="#E8EEF5" font-family="sans-serif" font-size="12">CIRCLE</text>
  <rect x="362" y="216" width="210" height="36" rx="3" stroke="#8B9BB4" stroke-width="1.2" fill="#0B0F14"/>
  <text x="382" y="239" fill="#8B9BB4" font-family="sans-serif" font-size="14" font-style="italic">Aa</text>
  <text x="434" y="239" fill="#E8EEF5" font-family="sans-serif" font-size="12">TEXT</text>
  <rect x="362" y="262" width="210" height="36" rx="3" stroke="#8B9BB4" stroke-width="1.2" fill="#0B0F14"/>
  <rect x="382" y="272" width="20" height="16" stroke="#8B9BB4" stroke-width="1.5" fill="none"/>
  <text x="434" y="285" fill="#E8EEF5" font-family="sans-serif" font-size="12">INSERT</text>
  <text x="40" y="36" fill="#8B9BB4" font-family="monospace" font-size="11" letter-spacing="2">FILTER - CHANGE - ENTITY</text>
</svg>
