<svg xmlns="http://www.w3.org/2000/svg" viewBox="0 0 640 400" fill="none">
  <rect width="640" height="400" fill="#0B0F14"/>
  <g stroke="#4A5A70" stroke-width="1" opacity="0.3">
    <path d="M40 40h560M40 360h560M40 40v320M600 40v320"/>
  </g>
  <rect x="48" y="72" width="360" height="268" rx="4" stroke="#2A3441" stroke-width="1.5" fill="#0F1820"/>
  <path d="M100 140h180M120 200h140M160 260h120" stroke="#9CA3AF" stroke-width="1.5" stroke-linecap="round" opacity="0.5"/>
  <path d="M220 160c12-18 36-18 48 0c14-10 34-4 36 14c16 2 24 18 14 30c8 14-2 30-18 28c-4 16-24 22-38 10c-14 12-36 4-40-12c-16 0-26-16-16-28c-8-14 2-30 14-28z" stroke="#E8A54B" stroke-width="1.8" fill="#24180C"/>
  <path d="M248 200h40" stroke="#E11D48" stroke-width="2.5" stroke-linecap="round"/>
  <path d="M260 188l24 24" stroke="#22C55E" stroke-width="2" stroke-linecap="round"/>
  <rect x="432" y="72" width="160" height="268" rx="4" stroke="#3DDCFF" stroke-width="1.5" fill="#0C141A"/>
  <text x="448" y="100" fill="#8B9BB4" font-family="monospace" font-size="10" letter-spacing="1">RESULTS</text>
  <rect x="448" y="116" width="128" height="32" rx="2" fill="#1A0C12" stroke="#E11D48" stroke-width="1"/>
  <text x="460" y="136" fill="#E11D48" font-family="sans-serif" font-size="12">Deleted - 12</text>
  <rect x="448" y="160" width="128" height="32" rx="2" fill="#1A1408" stroke="#E8A54B" stroke-width="1"/>
  <text x="460" y="180" fill="#E8A54B" font-family="sans-serif" font-size="12">Modified - 8</text>
  <rect x="448" y="204" width="128" height="32" rx="2" fill="#0C1A12" stroke="#22C55E" stroke-width="1"/>
  <text x="460" y="224" fill="#22C55E" font-family="sans-serif" font-size="12">Added - 15</text>
  <path d="M480 270h64M512 258v24" stroke="#3DDCFF" stroke-width="1.5" stroke-linecap="round"/>
  <text x="448" y="316" fill="#8B9BB4" font-family="monospace" font-size="10">NAVIGATE</text>
  <text x="40" y="36" fill="#8B9BB4" font-family="monospace" font-size="11" letter-spacing="2">REVIEW - CLOUDS - PANEL</text>
</svg>
