<svg xmlns="http://www.w3.org/2000/svg" viewBox="0 0 640 400" fill="none">
  <rect width="640" height="400" fill="#0B0F14"/>
  <g stroke="#4A5A70" stroke-width="1" opacity="0.4">
    <path d="M40 40h560M40 100h560M40 160h560M40 220h560M40 280h560M40 340h560"/>
    <path d="M100 20v360M200 20v360M320 20v360M440 20v360M540 20v360"/>
  </g>
  <rect x="64" y="120" width="120" height="150" stroke="#8B9BB4" fill="#121821"/>
  <path d="M64 150h120" stroke="#4A5A70"/>
  <text x="88" y="142" fill="#8B9BB4" font-family="monospace" font-size="14">DWG</text>
  <path d="M92 180h64M92 200h48M92 220h56" stroke="#5A6A82" stroke-width="2"/>
  <path d="M200 195h48" stroke="#3DDCFF" stroke-width="1.5"/>
  <polygon points="248,195 236,189 236,201" fill="#3DDCFF"/>
  <rect x="260" y="108" width="140" height="174" stroke="#3DDCFF" stroke-width="1.5" fill="#0F1820"/>
  <text x="278" y="140" fill="#3DDCFF" font-family="monospace" font-size="11">@mlight-cad</text>
  <text x="286" y="162" fill="#E8EEF5" font-family="monospace" font-size="12">dwg-</text>
  <text x="286" y="180" fill="#E8EEF5" font-family="monospace" font-size="12">converter</text>
  <rect x="284" y="200" width="92" height="48" stroke="#E8A54B" stroke-width="1" fill="#0B0F14"/>
  <text x="298" y="230" fill="#E8A54B" font-family="monospace" font-size="11">npm</text>
  <path d="M416 195h48" stroke="#3DDCFF" stroke-width="1.5"/>
  <polygon points="464,195 452,189 452,201" fill="#3DDCFF"/>
  <rect x="476" y="132" width="108" height="126" stroke="#8B9BB4" fill="#121821"/>
  <text x="492" y="168" fill="#8B9BB4" font-family="monospace" font-size="11">data-</text>
  <text x="492" y="188" fill="#8B9BB4" font-family="monospace" font-size="11">model</text>
  <circle cx="530" cy="230" r="16" stroke="#3DDCFF" stroke-width="1.5"/>
  <path d="M522 230h16M530 222v16" stroke="#3DDCFF" stroke-width="1.5"/>
  <text x="40" y="36" fill="#8B9BB4" font-family="monospace" font-size="11" letter-spacing="2">DROP-IN DWG PATH</text>
</svg>
